<svg width="70" height="14" viewBox="0 0 140 28" fill="none" xmlns="http://www.w3.org/2000/svg">
<path d="M14.354 12.438C14.222 12.606 14.09 12.738 13.958 12.834C13.838 12.93 13.658 12.978 13.418 12.978C13.19 12.978 12.968 12.912 12.752 12.78C12.536 12.636 12.278 12.48 11.978 12.312C11.678 12.132 11.318 11.976 10.898 11.844C10.49 11.7 9.98 11.628 9.368 11.628C8.588 11.628 7.904 11.772 7.316 12.06C6.728 12.336 6.236 12.738 5.84 13.266C5.456 13.794 5.168 14.436 4.976 15.192C4.784 15.936 4.688 16.782 4.688 17.73C4.688 18.714 4.79 19.59 4.994 20.358C5.21 21.126 5.516 21.774 5.912 22.302C6.308 22.818 6.788 23.214 7.352 23.49C7.916 23.754 8.552 23.886 9.26 23.886C9.968 23.886 10.538 23.802 10.97 23.634C11.414 23.454 11.786 23.262 12.086 23.058C12.386 22.842 12.644 22.65 12.86 22.482C13.088 22.302 13.34 22.212 13.616 22.212C13.976 22.212 14.246 22.35 14.426 22.626L15.704 24.246C15.212 24.822 14.678 25.308 14.102 25.704C13.526 26.088 12.926 26.4 12.302 26.64C11.69 26.868 11.054 27.03 10.394 27.126C9.734 27.222 9.08 27.27 8.432 27.27C7.292 27.27 6.218 27.06 5.21 26.64C4.202 26.208 3.32 25.584 2.564 24.768C1.82 23.952 1.226 22.956 0.782 21.78C0.35 20.592 0.134 19.242 0.134 17.73C0.134 16.374 0.326 15.12 0.71 13.968C1.106 12.804 1.682 11.802 2.438 10.962C3.194 10.11 4.13 9.444 5.246 8.964C6.362 8.484 7.646 8.244 9.098 8.244C10.478 8.244 11.684 8.466 12.716 8.91C13.76 9.354 14.696 9.99 15.524 10.818L14.354 12.438ZM26.4163 8.244C27.7963 8.244 29.0443 8.466 30.1603 8.91C31.2883 9.354 32.2483 9.984 33.0403 10.8C33.8323 11.616 34.4443 12.612 34.8763 13.788C35.3083 14.964 35.5243 16.278 35.5243 17.73C35.5243 19.194 35.3083 20.514 34.8763 21.69C34.4443 22.866 33.8323 23.868 33.0403 24.696C32.2483 25.524 31.2883 26.16 30.1603 26.604C29.0443 27.048 27.7963 27.27 26.4163 27.27C25.0363 27.27 23.7823 27.048 22.6543 26.604C21.5263 26.16 20.5603 25.524 19.7563 24.696C18.9643 23.868 18.3463 22.866 17.9023 21.69C17.4703 20.514 17.2543 19.194 17.2543 17.73C17.2543 16.278 17.4703 14.964 17.9023 13.788C18.3463 12.612 18.9643 11.616 19.7563 10.8C20.5603 9.984 21.5263 9.354 22.6543 8.91C23.7823 8.466 25.0363 8.244 26.4163 8.244ZM26.4163 23.85C27.9523 23.85 29.0863 23.334 29.8183 22.302C30.5623 21.27 30.9343 19.758 30.9343 17.766C30.9343 15.774 30.5623 14.256 29.8183 13.212C29.0863 12.168 27.9523 11.646 26.4163 11.646C24.8563 11.646 23.7043 12.174 22.9603 13.23C22.2163 14.274 21.8443 15.786 21.8443 17.766C21.8443 19.746 22.2163 21.258 22.9603 22.302C23.7043 23.334 24.8563 23.85 26.4163 23.85ZM43.7272 8.532V27H39.2812V8.532H43.7272ZM44.3932 3.15C44.3932 3.534 44.3152 3.894 44.1592 4.23C44.0032 4.566 43.7932 4.86 43.5292 5.112C43.2772 5.364 42.9772 5.568 42.6292 5.724C42.2812 5.868 41.9092 5.94 41.5132 5.94C41.1292 5.94 40.7632 5.868 40.4152 5.724C40.0792 5.568 39.7852 5.364 39.5332 5.112C39.2812 4.86 39.0772 4.566 38.9212 4.23C38.7772 3.894 38.7052 3.534 38.7052 3.15C38.7052 2.754 38.7772 2.382 38.9212 2.034C39.0772 1.686 39.2812 1.386 39.5332 1.134C39.7852 0.881999 40.0792 0.683999 40.4152 0.539999C40.7632 0.383999 41.1292 0.305999 41.5132 0.305999C41.9092 0.305999 42.2812 0.383999 42.6292 0.539999C42.9772 0.683999 43.2772 0.881999 43.5292 1.134C43.7932 1.386 44.0032 1.686 44.1592 2.034C44.3152 2.382 44.3932 2.754 44.3932 3.15ZM48.7666 27V8.532H51.4846C52.0606 8.532 52.4386 8.802 52.6186 9.342L52.9246 10.8C53.2966 10.416 53.6866 10.068 54.0946 9.756C54.5146 9.444 54.9526 9.174 55.4086 8.946C55.8766 8.718 56.3746 8.544 56.9026 8.424C57.4306 8.304 58.0066 8.244 58.6306 8.244C59.6386 8.244 60.5326 8.418 61.3126 8.766C62.0926 9.102 62.7406 9.582 63.2566 10.206C63.7846 10.818 64.1806 11.556 64.4446 12.42C64.7206 13.272 64.8586 14.214 64.8586 15.246V27H60.4126V15.246C60.4126 14.118 60.1486 13.248 59.6206 12.636C59.1046 12.012 58.3246 11.7 57.2806 11.7C56.5126 11.7 55.7926 11.874 55.1206 12.222C54.4486 12.57 53.8126 13.044 53.2126 13.644V27H48.7666ZM69.2816 27V0.251999H73.7276V10.8C74.4596 10.02 75.2876 9.402 76.2116 8.946C77.1356 8.478 78.2156 8.244 79.4516 8.244C80.4596 8.244 81.3776 8.454 82.2056 8.874C83.0456 9.282 83.7656 9.882 84.3656 10.674C84.9776 11.466 85.4456 12.444 85.7696 13.608C86.1056 14.772 86.2736 16.11 86.2736 17.622C86.2736 19.002 86.0876 20.28 85.7156 21.456C85.3436 22.632 84.8096 23.652 84.1136 24.516C83.4296 25.38 82.5956 26.058 81.6116 26.55C80.6396 27.03 79.5476 27.27 78.3356 27.27C77.7716 27.27 77.2556 27.21 76.7876 27.09C76.3196 26.982 75.8936 26.826 75.5096 26.622C75.1256 26.418 74.7656 26.172 74.4296 25.884C74.1056 25.584 73.7936 25.254 73.4936 24.894L73.2956 26.136C73.2236 26.448 73.0976 26.67 72.9176 26.802C72.7496 26.934 72.5156 27 72.2156 27H69.2816ZM77.9216 11.7C76.9976 11.7 76.2056 11.898 75.5456 12.294C74.8976 12.678 74.2916 13.224 73.7276 13.932V22.212C74.2316 22.836 74.7776 23.274 75.3656 23.526C75.9656 23.766 76.6136 23.886 77.3096 23.886C77.9816 23.886 78.5876 23.76 79.1276 23.508C79.6676 23.256 80.1236 22.872 80.4956 22.356C80.8796 21.84 81.1736 21.192 81.3776 20.412C81.5816 19.62 81.6836 18.69 81.6836 17.622C81.6836 16.542 81.5936 15.63 81.4136 14.886C81.2456 14.13 80.9996 13.518 80.6756 13.05C80.3516 12.582 79.9556 12.24 79.4876 12.024C79.0316 11.808 78.5096 11.7 77.9216 11.7ZM104.231 27H102.233C101.813 27 101.483 26.94 101.243 26.82C101.003 26.688 100.823 26.43 100.703 26.046L100.307 24.732C99.8388 25.152 99.3768 25.524 98.9208 25.848C98.4768 26.16 98.0148 26.424 97.5348 26.64C97.0548 26.856 96.5448 27.018 96.0048 27.126C95.4648 27.234 94.8648 27.288 94.2048 27.288C93.4248 27.288 92.7048 27.186 92.0448 26.982C91.3848 26.766 90.8148 26.448 90.3348 26.028C89.8668 25.608 89.5008 25.086 89.2368 24.462C88.9728 23.838 88.8408 23.112 88.8408 22.284C88.8408 21.588 89.0208 20.904 89.3808 20.232C89.7528 19.548 90.3648 18.936 91.2168 18.396C92.0688 17.844 93.2028 17.388 94.6188 17.028C96.0348 16.668 97.7928 16.464 99.8928 16.416V15.336C99.8928 14.1 99.6288 13.188 99.1008 12.6C98.5848 12 97.8288 11.7 96.8328 11.7C96.1128 11.7 95.5128 11.784 95.0328 11.952C94.5528 12.12 94.1328 12.312 93.7728 12.528C93.4248 12.732 93.1008 12.918 92.8008 13.086C92.5008 13.254 92.1708 13.338 91.8108 13.338C91.5108 13.338 91.2528 13.26 91.0368 13.104C90.8208 12.948 90.6468 12.756 90.5148 12.528L89.7048 11.106C91.8288 9.162 94.3908 8.19 97.3908 8.19C98.4708 8.19 99.4308 8.37 100.271 8.73C101.123 9.078 101.843 9.57 102.431 10.206C103.019 10.83 103.463 11.58 103.763 12.456C104.075 13.332 104.231 14.292 104.231 15.336V27ZM95.5908 24.228C96.0468 24.228 96.4668 24.186 96.8508 24.102C97.2348 24.018 97.5948 23.892 97.9308 23.724C98.2788 23.556 98.6088 23.352 98.9208 23.112C99.2448 22.86 99.5688 22.566 99.8928 22.23V19.116C98.5968 19.176 97.5108 19.29 96.6348 19.458C95.7708 19.614 95.0748 19.818 94.5468 20.07C94.0188 20.322 93.6408 20.616 93.4128 20.952C93.1968 21.288 93.0888 21.654 93.0888 22.05C93.0888 22.83 93.3168 23.388 93.7728 23.724C94.2408 24.06 94.8468 24.228 95.5908 24.228ZM119.565 12.132C119.445 12.324 119.319 12.462 119.187 12.546C119.055 12.618 118.887 12.654 118.683 12.654C118.467 12.654 118.233 12.594 117.981 12.474C117.741 12.354 117.459 12.222 117.135 12.078C116.811 11.922 116.439 11.784 116.019 11.664C115.611 11.544 115.125 11.484 114.561 11.484C113.685 11.484 112.995 11.67 112.491 12.042C111.987 12.414 111.735 12.9 111.735 13.5C111.735 13.896 111.861 14.232 112.113 14.508C112.377 14.772 112.719 15.006 113.139 15.21C113.571 15.414 114.057 15.6 114.597 15.768C115.137 15.924 115.689 16.098 116.253 16.29C116.817 16.482 117.369 16.704 117.909 16.956C118.449 17.196 118.929 17.508 119.349 17.892C119.781 18.264 120.123 18.714 120.375 19.242C120.639 19.77 120.771 20.406 120.771 21.15C120.771 22.038 120.609 22.86 120.285 23.616C119.961 24.36 119.487 25.008 118.863 25.56C118.239 26.1 117.465 26.526 116.541 26.838C115.629 27.138 114.579 27.288 113.391 27.288C112.755 27.288 112.131 27.228 111.519 27.108C110.919 27 110.337 26.844 109.773 26.64C109.221 26.436 108.705 26.196 108.225 25.92C107.757 25.644 107.343 25.344 106.983 25.02L108.009 23.328C108.141 23.124 108.297 22.968 108.477 22.86C108.657 22.752 108.885 22.698 109.161 22.698C109.437 22.698 109.695 22.776 109.935 22.932C110.187 23.088 110.475 23.256 110.799 23.436C111.123 23.616 111.501 23.784 111.933 23.94C112.377 24.096 112.935 24.174 113.607 24.174C114.135 24.174 114.585 24.114 114.957 23.994C115.341 23.862 115.653 23.694 115.893 23.49C116.145 23.286 116.325 23.052 116.433 22.788C116.553 22.512 116.613 22.23 116.613 21.942C116.613 21.51 116.481 21.156 116.217 20.88C115.965 20.604 115.623 20.364 115.191 20.16C114.771 19.956 114.285 19.776 113.733 19.62C113.193 19.452 112.635 19.272 112.059 19.08C111.495 18.888 110.937 18.666 110.385 18.414C109.845 18.15 109.359 17.82 108.927 17.424C108.507 17.028 108.165 16.542 107.901 15.966C107.649 15.39 107.523 14.694 107.523 13.878C107.523 13.122 107.673 12.402 107.973 11.718C108.273 11.034 108.711 10.44 109.287 9.936C109.875 9.42 110.601 9.012 111.465 8.712C112.341 8.4 113.349 8.244 114.489 8.244C115.761 8.244 116.919 8.454 117.963 8.874C119.007 9.294 119.877 9.846 120.573 10.53L119.565 12.132ZM131.949 8.244C133.113 8.244 134.181 8.43 135.153 8.802C136.137 9.174 136.983 9.72 137.691 10.44C138.399 11.148 138.951 12.024 139.347 13.068C139.743 14.1 139.941 15.282 139.941 16.614C139.941 16.95 139.923 17.232 139.887 17.46C139.863 17.676 139.809 17.85 139.725 17.982C139.653 18.102 139.551 18.192 139.419 18.252C139.287 18.3 139.119 18.324 138.915 18.324H127.503C127.635 20.22 128.145 21.612 129.033 22.5C129.921 23.388 131.097 23.832 132.561 23.832C133.281 23.832 133.899 23.748 134.415 23.58C134.943 23.412 135.399 23.226 135.783 23.022C136.179 22.818 136.521 22.632 136.809 22.464C137.109 22.296 137.397 22.212 137.673 22.212C137.853 22.212 138.009 22.248 138.141 22.32C138.273 22.392 138.387 22.494 138.483 22.626L139.779 24.246C139.287 24.822 138.735 25.308 138.123 25.704C137.511 26.088 136.869 26.4 136.197 26.64C135.537 26.868 134.859 27.03 134.163 27.126C133.479 27.222 132.813 27.27 132.165 27.27C130.881 27.27 129.687 27.06 128.583 26.64C127.479 26.208 126.519 25.578 125.703 24.75C124.887 23.91 124.245 22.878 123.777 21.654C123.309 20.418 123.075 18.99 123.075 17.37C123.075 16.11 123.279 14.928 123.687 13.824C124.095 12.708 124.677 11.742 125.433 10.926C126.201 10.098 127.131 9.444 128.223 8.964C129.327 8.484 130.569 8.244 131.949 8.244ZM132.039 11.43C130.743 11.43 129.729 11.796 128.997 12.528C128.265 13.26 127.797 14.298 127.593 15.642H135.945C135.945 15.066 135.867 14.526 135.711 14.022C135.555 13.506 135.315 13.056 134.991 12.672C134.667 12.288 134.259 11.988 133.767 11.772C133.275 11.544 132.699 11.43 132.039 11.43Z" fill="white"/>
</svg>
