<svg width="48" height="48" viewBox="0 0 48 48" fill="none" xmlns="http://www.w3.org/2000/svg">
<path d="M33.3545 8V4H13.7342V8H3.92407V22C3.92407 24.2 5.6899 26 7.84812 26H13.9304C14.7152 29.92 17.7367 33 21.5823 33.8V38.16C15.6962 39.08 15.6962 44 15.6962 44H31.3924C31.3924 44 31.3924 39.08 25.5063 38.16V33.8C29.3519 33 32.3734 29.92 33.1582 26H39.2405C41.3988 26 43.1646 24.2 43.1646 22V8H33.3545ZM7.84812 22V12H13.7342V22H7.84812ZM39.2405 22H33.3545V12H39.2405V22Z" fill="#D1713F"/>
<path d="M18.658 15.26C18.7246 13.9267 19.1913 12.9 20.058 12.18C20.938 11.4467 22.0913 11.08 23.518 11.08C24.4913 11.08 25.3246 11.2533 26.018 11.6C26.7113 11.9333 27.2313 12.3933 27.578 12.98C27.938 13.5533 28.118 14.2067 28.118 14.94C28.118 15.78 27.898 16.4933 27.458 17.08C27.0313 17.6533 26.518 18.04 25.918 18.24V18.32C26.6913 18.56 27.2913 18.9867 27.718 19.6C28.158 20.2133 28.378 21 28.378 21.96C28.378 22.76 28.1913 23.4733 27.818 24.1C27.458 24.7267 26.918 25.22 26.198 25.58C25.4913 25.9267 24.638 26.1 23.638 26.1C22.1313 26.1 20.9046 25.72 19.958 24.96C19.0113 24.2 18.5113 23.08 18.458 21.6H21.178C21.2046 22.2533 21.4246 22.78 21.838 23.18C22.2646 23.5667 22.8446 23.76 23.578 23.76C24.258 23.76 24.778 23.5733 25.138 23.2C25.5113 22.8133 25.698 22.32 25.698 21.72C25.698 20.92 25.4446 20.3467 24.938 20C24.4313 19.6533 23.6446 19.48 22.578 19.48H21.998V17.18H22.578C24.4713 17.18 25.418 16.5467 25.418 15.28C25.418 14.7067 25.2446 14.26 24.898 13.94C24.5646 13.62 24.078 13.46 23.438 13.46C22.8113 13.46 22.3246 13.6333 21.978 13.98C21.6446 14.3133 21.4513 14.74 21.398 15.26H18.658Z" fill="white"/>
</svg>
