<svg width="48" height="48" viewBox="0 0 48 48" fill="none" xmlns="http://www.w3.org/2000/svg">
<path d="M33.3545 8V4H13.7342V8H3.92407V22C3.92407 24.2 5.6899 26 7.84812 26H13.9304C14.7152 29.92 17.7367 33 21.5823 33.8V38.16C15.6962 39.08 15.6962 44 15.6962 44H31.3924C31.3924 44 31.3924 39.08 25.5063 38.16V33.8C29.3519 33 32.3734 29.92 33.1582 26H39.2405C41.3988 26 43.1646 24.2 43.1646 22V8H33.3545ZM7.84812 22V12H13.7342V22H7.84812ZM39.2405 22H33.3545V12H39.2405V22Z" fill="#A9AAAF"/>
<path d="M19.7421 22.84C21.0221 21.7733 22.0421 20.8867 22.8021 20.18C23.5621 19.46 24.1954 18.7133 24.7021 17.94C25.2088 17.1667 25.4621 16.4067 25.4621 15.66C25.4621 14.98 25.3021 14.4467 24.9821 14.06C24.6621 13.6733 24.1688 13.48 23.5021 13.48C22.8354 13.48 22.3221 13.7067 21.9621 14.16C21.6021 14.6 21.4154 15.2067 21.4021 15.98H18.6821C18.7354 14.38 19.2088 13.1667 20.1021 12.34C21.0088 11.5133 22.1554 11.1 23.5421 11.1C25.0621 11.1 26.2288 11.5067 27.0421 12.32C27.8554 13.12 28.2621 14.18 28.2621 15.5C28.2621 16.54 27.9821 17.5333 27.4221 18.48C26.8621 19.4267 26.2221 20.2533 25.5021 20.96C24.7821 21.6533 23.8421 22.4933 22.6821 23.48H28.5821V25.8H18.7021V23.72L19.7421 22.84Z" fill="white"/>
</svg>
