<svg width="48" height="48" viewBox="0 0 48 48" fill="none" xmlns="http://www.w3.org/2000/svg">
<path d="M33.3545 8V4H13.7342V8H3.92407V22C3.92407 24.2 5.6899 26 7.84812 26H13.9304C14.7152 29.92 17.7367 33 21.5823 33.8V38.16C15.6962 39.08 15.6962 44 15.6962 44H31.3924C31.3924 44 31.3924 39.08 25.5063 38.16V33.8C29.3519 33 32.3734 29.92 33.1582 26H39.2405C41.3988 26 43.1646 24.2 43.1646 22V8H33.3545ZM7.84812 22V12H13.7342V22H7.84812ZM39.2405 22H33.3545V12H39.2405V22Z" fill="#C2A508"/>
<path d="M20.6414 14V11.42H25.4614V26H22.5814V14H20.6414Z" fill="white"/>
</svg>
